<?xml version="1.0" encoding="UTF-8" standalone="no"?>
<!DOCTYPE svg PUBLIC "-//W3C//DTD SVG 1.0//EN" "http://www.w3.org/TR/2001/REC-SVG-20010904/DTD/svg10.dtd">
<!--
   SVG file created by
        RRDtool 1.2.15 Tobias Oetiker, http://tobi.oetiker.ch

   The width/height attributes in the outhermost svg node
   are just default sizes for the browser which is used
   if the svg file is openened directly without being
   embedded in an html file.
   The viewBox is the local coord system for rrdtool.
-->
<svg width="806" height="343" x="0" y="0" viewBox="-0.5 -0.5 805.5 342.5" preserveAspectRatio="xMidYMid meet" font-family="Courier" stroke-linecap="round" stroke-linejoin="round" xmlns="http://www.w3.org/2000/svg" xmlns:xlink="http://www.w3.org/1999/xlink">
  <rect x="0" y="0" width="806" height="343" fill="#000" opacity="0"/>
  <polygon fill="#FFF" points="-0.5,-0.5 -0.5,342.5 805.5,342.5 805.5,-0.5"/>
  <polygon fill="#FFF" points="55.5,282.5 775.5,282.5 775.5,32.5 55.5,32.5"/>
  <polygon fill="#69F" points="286.5,162.68 286.5,282.7 331.5,282.7 331.5,162.85 330.5,162.85 330.5,165.21 329.5,165.21 329.5,156.94 328.5,156.94 328.5,168.73 327.5,168.73 327.5,154.72 326.5,154.72 326.5,170.6 325.5,170.6 325.5,157.89 324.5,157.89 324.5,161.43 323.5,161.43 323.5,164.99 322.5,164.99 322.5,161.73 321.5,161.73 321.5,160.31 320.5,160.31 320.5,158.53 319.5,158.53 319.5,154.53 317.5,154.53 317.5,158.7 316.5,158.7 316.5,157.87 315.5,157.87 315.5,165.7 314.5,165.7 314.5,164.74 313.5,164.74 313.5,165.61 312.5,165.61 312.5,168 311.5,168 311.5,160.39 310.5,160.39 310.5,161.58 309.5,161.58 309.5,162.94 308.5,162.94 308.5,164.33 307.5,164.33 307.5,161.99 306.5,161.99 306.5,163.28 305.5,163.28 305.5,157.09 304.5,157.09 304.5,158.83 302.5,158.83 302.5,160.96 301.5,160.96 301.5,164.58 300.5,164.58 300.5,164.72 299.5,164.72 299.5,160.15 298.5,160.15 298.5,163.97 297.5,163.97 297.5,159.18 296.5,159.18 296.5,163.21 295.5,163.21 295.5,158.52 294.5,158.52 294.5,158.69 293.5,158.69 293.5,162.31 292.5,162.31 292.5,161.94 291.5,161.94 291.5,161.23 290.5,161.23 290.5,168.94 289.5,168.94 289.5,159.76 287.5,159.76 287.5,162.68"/>
  <polygon fill="#69F" points="337.5,160.75 337.5,282.7 345.5,282.7 345.5,159.45 344.5,159.45 344.5,164.52 343.5,164.52 343.5,162.22 342.5,162.22 342.5,160.18 341.5,160.18 341.5,164.1 340.5,164.1 340.5,170.51 339.5,170.51 339.5,153.62 338.5,153.62 338.5,160.75"/>
  <polygon fill="#69F" points="399.5,157.22 399.5,282.7 421.5,282.7 421.5,156.67 420.5,156.67 420.5,165.14 419.5,165.14 419.5,163.7 418.5,163.7 418.5,158.55 417.5,158.55 417.5,166.1 416.5,166.1 416.5,163.79 415.5,163.79 415.5,168.12 414.5,168.12 414.5,161.51 413.5,161.51 413.5,163.06 412.5,163.06 412.5,165.67 411.5,165.67 411.5,160.75 410.5,160.75 410.5,164.71 409.5,164.71 409.5,157.69 407.5,157.69 407.5,163.2 406.5,163.2 406.5,161.53 405.5,161.53 405.5,157.2 404.5,157.2 404.5,156.56 403.5,156.56 403.5,156.77 402.5,156.77 402.5,157.36 401.5,157.36 401.5,158.61 400.5,158.61 400.5,157.22"/>
  <polygon fill="#69F" points="433.5,158.2 433.5,282.7 457.5,282.7 457.5,167.28 456.5,167.28 456.5,157.72 455.5,157.72 455.5,159.86 454.5,159.86 454.5,162.34 452.5,162.34 452.5,159.83 451.5,159.83 451.5,159.21 450.5,159.21 450.5,159.83 449.5,159.83 449.5,161.17 448.5,161.17 448.5,161.05 447.5,161.05 447.5,161.1 446.5,161.1 446.5,160.7 445.5,160.7 445.5,168.01 444.5,168.01 444.5,163.77 443.5,163.77 443.5,155 442.5,155 442.5,166.09 441.5,166.09 441.5,160.64 440.5,160.64 440.5,157.14 439.5,157.14 439.5,162.24 437.5,162.24 437.5,164.8 436.5,164.8 436.5,161.86 435.5,161.86 435.5,155.37 434.5,155.37 434.5,158.2"/>
  <polygon fill="#69F" points="459.5,165.1 459.5,282.7 464.5,282.7 464.5,161.33 463.5,161.33 463.5,151.87 462.5,151.87 462.5,161.23 461.5,161.23 461.5,156.67 460.5,156.67 460.5,165.1"/>
  <polygon fill="#69F" points="467.5,167.1 467.5,282.7 472.5,282.7 472.5,156.45 471.5,156.45 471.5,164.74 470.5,164.74 470.5,164.95 469.5,164.95 469.5,167.1 468.5,167.1"/>
  <polygon fill="#69F" points="476.5,160.99 476.5,282.7 487.5,282.7 487.5,167.81 486.5,167.81 486.5,162.3 485.5,162.3 485.5,169.55 484.5,169.55 484.5,163.01 482.5,163.01 482.5,155.52 481.5,155.52 481.5,169.01 480.5,169.01 480.5,167.95 479.5,167.95 479.5,156.71 478.5,156.71 478.5,160.15 477.5,160.15 477.5,160.99"/>
  <polygon fill="#69F" points="489.5,160.25 489.5,282.7 493.5,282.7 493.5,157.09 492.5,157.09 492.5,161.5 491.5,161.5 491.5,159.51 490.5,159.51 490.5,160.25"/>
  <polygon fill="#69F" points="495.5,165.27 495.5,282.7 521.5,282.7 521.5,162.38 520.5,162.38 520.5,167.34 519.5,167.34 519.5,162.45 518.5,162.45 518.5,162.59 517.5,162.59 517.5,164.3 516.5,164.3 516.5,161.06 515.5,161.06 515.5,168.35 514.5,168.35 514.5,164.38 512.5,164.38 512.5,164.45 511.5,164.45 511.5,167.43 510.5,167.43 510.5,161.24 509.5,161.24 509.5,168.54 508.5,168.54 508.5,161.24 507.5,161.24 507.5,161.51 506.5,161.51 506.5,166.48 505.5,166.48 505.5,167.75 504.5,167.75 504.5,161.32 503.5,161.32 503.5,154.06 502.5,154.06 502.5,165.41 501.5,165.41 501.5,165.58 500.5,165.58 500.5,157.97 499.5,157.97 499.5,159.04 497.5,159.04 497.5,160.84 496.5,160.84 496.5,165.27"/>
  <polygon fill="#69F" points="523.5,157.46 523.5,282.7 537.5,282.7 537.5,163.51 536.5,163.51 536.5,155.09 535.5,155.09 535.5,165.21 534.5,165.21 534.5,162.18 533.5,162.18 533.5,155.83 532.5,155.83 532.5,158.95 531.5,158.95 531.5,157.55 530.5,157.55 530.5,160.64 529.5,160.64 529.5,160.08 527.5,160.08 527.5,162.4 526.5,162.4 526.5,159.88 525.5,159.88 525.5,159.22 524.5,159.22 524.5,157.46"/>
  <polygon fill="#69F" points="546.5,156.65 546.5,282.7 554.5,282.7 554.5,171.05 553.5,171.05 553.5,166.45 552.5,166.45 552.5,163.49 551.5,163.49 551.5,160.01 550.5,160.01 550.5,162.33 549.5,162.33 549.5,157.79 548.5,157.79 548.5,165.6 547.5,165.6 547.5,156.65"/>
  <polygon fill="#69F" points="555.5,168.34 555.5,282.7 566.5,282.7 566.5,163.15 565.5,163.15 565.5,161.85 564.5,161.85 564.5,160.9 563.5,160.9 563.5,163.18 562.5,163.18 562.5,161.16 561.5,161.16 561.5,165.03 560.5,165.03 560.5,161.61 559.5,161.61 559.5,159.26 557.5,159.26 557.5,161.99 556.5,161.99 556.5,168.34"/>
  <polygon fill="#69F" points="601.5,162.48 601.5,282.7 614.5,282.7 614.5,162.78 613.5,162.78 613.5,161.64 612.5,161.64 612.5,170.73 611.5,170.73 611.5,169.41 610.5,169.41 610.5,158.98 609.5,158.98 609.5,163.16 608.5,163.16 608.5,171.97 607.5,171.97 607.5,160.3 606.5,160.3 606.5,165.14 605.5,165.14 605.5,154.91 604.5,154.91 604.5,157.89 602.5,157.89 602.5,162.48"/>
  <polygon fill="#69F" points="627.5,159.2 627.5,282.7 628.5,282.7 628.5,159.2"/>
  <polygon fill="#69F" points="631.5,157.09 631.5,282.7 773.5,282.7 773.5,153.25 772.5,153.25 772.5,164.1 771.5,164.1 771.5,157.23 770.5,157.23 770.5,161.38 769.5,161.38 769.5,164.88 767.5,164.88 767.5,165.39 766.5,165.39 766.5,159.93 765.5,159.93 765.5,164.26 764.5,164.26 764.5,163.62 763.5,163.62 763.5,160.41 762.5,160.41 762.5,161.48 761.5,161.48 761.5,166.15 760.5,166.15 760.5,159.86 759.5,159.86 759.5,162.38 758.5,162.38 758.5,164.04 757.5,164.04 757.5,158.55 756.5,158.55 756.5,157.75 755.5,157.75 755.5,154.95 754.5,154.95 754.5,162.62 752.5,162.62 752.5,158.34 751.5,158.34 751.5,169.94 750.5,169.94 750.5,159.7 749.5,159.7 749.5,163.24 748.5,163.24 748.5,158.77 747.5,158.77 747.5,163.07 746.5,163.07 746.5,166.23 745.5,166.23 745.5,164.75 744.5,164.75 744.5,167.65 743.5,167.65 743.5,159.74 742.5,159.74 742.5,164.4 741.5,164.4 741.5,162.63 740.5,162.63 740.5,166.82 739.5,166.82 739.5,162.36 737.5,162.36 737.5,160.79 736.5,160.79 736.5,163.38 735.5,163.38 735.5,154.43 734.5,154.43 734.5,162.66 733.5,162.66 733.5,156.28 732.5,156.28 732.5,157.85 731.5,157.85 731.5,159.14 730.5,159.14 730.5,164.5 729.5,164.5 729.5,164.56 728.5,164.56 728.5,166.4 727.5,166.4 727.5,165.7 726.5,165.7 726.5,162.93 725.5,162.93 725.5,162.59 724.5,162.59 724.5,165.34 722.5,165.34 722.5,166.74 721.5,166.74 721.5,166.93 720.5,166.93 720.5,164.49 719.5,164.49 719.5,171.59 718.5,171.59 718.5,157.37 717.5,157.37 717.5,162.4 716.5,162.4 716.5,165.15 715.5,165.15 715.5,168.14 714.5,168.14 714.5,165.99 713.5,165.99 713.5,162.55 712.5,162.55 712.5,159.91 711.5,159.91 711.5,159.04 710.5,159.04 710.5,164.75 709.5,164.75 709.5,165.17 707.5,165.17 707.5,169.15 706.5,169.15 706.5,163.8 705.5,163.8 705.5,161.66 704.5,161.66 704.5,160.18 703.5,160.18 703.5,160.54 702.5,160.54 702.5,160.66 701.5,160.66 701.5,160.81 700.5,160.81 700.5,167.1 699.5,167.1 699.5,166.1 698.5,166.1 698.5,158.16 697.5,158.16 697.5,161 696.5,161 696.5,163.59 695.5,163.59 695.5,158.79 694.5,158.79 694.5,158.25 692.5,158.25 692.5,162.79 691.5,162.79 691.5,164.45 690.5,164.45 690.5,165.44 689.5,165.44 689.5,163.24 688.5,163.24 688.5,163.01 687.5,163.01 687.5,149.17 686.5,149.17 686.5,160.08 685.5,160.08 685.5,161.1 684.5,161.1 684.5,156.97 683.5,156.97 683.5,165.62 682.5,165.62 682.5,166.98 681.5,166.98 681.5,161.29 680.5,161.29 680.5,159.63 679.5,159.63 679.5,163.51 677.5,163.51 677.5,164.95 676.5,164.95 676.5,164.98 675.5,164.98 675.5,156.79 674.5,156.79 674.5,166.64 673.5,166.64 673.5,163.27 672.5,163.27 672.5,158.47 671.5,158.47 671.5,162.83 670.5,162.83 670.5,160.05 669.5,160.05 669.5,169.44 668.5,169.44 668.5,158.66 667.5,158.66 667.5,165.35 666.5,165.35 666.5,160.08 665.5,160.08 665.5,164.06 664.5,164.06 664.5,170.3 662.5,170.3 662.5,154.55 661.5,154.55 661.5,164.11 660.5,164.11 660.5,156.07 659.5,156.07 659.5,163.68 658.5,163.68 658.5,159.41 657.5,159.41 657.5,163.64 656.5,163.64 656.5,158.12 655.5,158.12 655.5,160.19 654.5,160.19 654.5,161.84 653.5,161.84 653.5,163.38 652.5,163.38 652.5,160.65 651.5,160.65 651.5,171.06 650.5,171.06 650.5,159.78 649.5,159.78 649.5,156.36 647.5,156.36 647.5,161.1 646.5,161.1 646.5,166.66 645.5,166.66 645.5,170.19 644.5,170.19 644.5,162.48 643.5,162.48 643.5,169.2 642.5,169.2 642.5,165.79 641.5,165.79 641.5,163.43 640.5,163.43 640.5,160.18 639.5,160.18 639.5,163.43 638.5,163.43 638.5,161.46 637.5,161.46 637.5,165.91 636.5,165.91 636.5,162.21 635.5,162.21 635.5,161.64 634.5,161.64 634.5,162.89 632.5,162.89 632.5,157.09"/>
  <polygon fill="#C0C0C0" points="-0.5,342.5 1.5,340.5 1.5,1.5 803.5,1.5 805.5,-0.5 -0.5,-0.5"/>
  <polygon fill="#C0C0C0" points="1.5,340.5 803.5,340.5 803.5,1.5 805.5,-0.5 805.5,342.5 -0.5,342.5"/>
  <g stroke-width="0.6" stroke="#E05050" opacity="0.5" fill="none" stroke-dashoffset="0.5" stroke-dasharray="0.52,1.48">
    <path d="M61,286v-255"/>
    <path d="M94,286v-255"/>
    <path d="M127,286v-255"/>
    <path d="M160,286v-255"/>
    <path d="M193,286v-255"/>
    <path d="M226,286v-255"/>
    <path d="M259,286v-255"/>
    <path d="M291,286v-255"/>
    <path d="M324,286v-255"/>
    <path d="M356,286v-255"/>
    <path d="M389,286v-255"/>
    <path d="M421,286v-255"/>
    <path d="M454,286v-255"/>
    <path d="M488,286v-255"/>
    <path d="M520,286v-255"/>
    <path d="M553,286v-255"/>
    <path d="M585,286v-255"/>
    <path d="M618,286v-255"/>
    <path d="M652,286v-255"/>
    <path d="M682,286v-255"/>
    <path d="M715,286v-255"/>
    <path d="M747,286v-255"/>
  </g>
  <text x="70.7" y="297.8" font-size="7" fill="#333">Aug</text>
  <text x="104.7" y="297.8" font-size="7" fill="#333">Sep</text>
  <text x="136.7" y="297.8" font-size="7" fill="#333">Oct</text>
  <text x="169.7" y="297.8" font-size="7" fill="#333">Nov</text>
  <text x="202.7" y="297.8" font-size="7" fill="#333">Dec</text>
  <text x="235.7" y="297.8" font-size="7" fill="#333">Jan</text>
  <text x="269.7" y="297.8" font-size="7" fill="#333">Feb</text>
  <text x="300.7" y="297.8" font-size="7" fill="#333">Mar</text>
  <text x="333.7" y="297.8" font-size="7" fill="#333">Apr</text>
  <text x="365.7" y="297.8" font-size="7" fill="#333">May</text>
  <text x="398.7" y="297.8" font-size="7" fill="#333">Jun</text>
  <text x="430.7" y="297.8" font-size="7" fill="#333">Jul</text>
  <text x="464.7" y="297.8" font-size="7" fill="#333">Aug</text>
  <text x="497.7" y="297.8" font-size="7" fill="#333">Sep</text>
  <text x="529.7" y="297.8" font-size="7" fill="#333">Oct</text>
  <text x="562.7" y="297.8" font-size="7" fill="#333">Nov</text>
  <text x="594.7" y="297.8" font-size="7" fill="#333">Dec</text>
  <text x="627.7" y="297.8" font-size="7" fill="#333">Jan</text>
  <text x="661.7" y="297.8" font-size="7" fill="#333">Feb</text>
  <text x="691.7" y="297.8" font-size="7" fill="#333">Mar</text>
  <text x="724.7" y="297.8" font-size="7" fill="#333">Apr</text>
  <text x="756.7" y="297.8" font-size="7" fill="#333">May</text>
  <text x="32.2" y="285.2" font-size="7" fill="#333">  10</text>
  <path stroke-width="0.6" stroke="#E05050" opacity="0.5" fill="none" stroke-dashoffset="1.5" stroke-dasharray="0.52,1.48" d="M54,283h724"/>
  <path stroke-width="0.4" stroke="#909090" opacity="0.5" fill="none" stroke-dashoffset="0.5" stroke-dasharray="0.68,1.32" d="M55,271h722"/>
  <text x="32.2" y="261.2" font-size="7" fill="#333">  11</text>
  <path stroke-width="0.6" stroke="#E05050" opacity="0.5" fill="none" stroke-dashoffset="1.5" stroke-dasharray="0.52,1.48" d="M54,259h724"/>
  <path stroke-width="0.4" stroke="#909090" opacity="0.5" fill="none" stroke-dashoffset="0.5" stroke-dasharray="0.68,1.32" d="M55,247h722"/>
  <text x="32.2" y="237.2" font-size="7" fill="#333">  12</text>
  <path stroke-width="0.6" stroke="#E05050" opacity="0.5" fill="none" stroke-dashoffset="1.5" stroke-dasharray="0.52,1.48" d="M54,235h724"/>
  <path stroke-width="0.4" stroke="#909090" opacity="0.5" fill="none" stroke-dashoffset="0.5" stroke-dasharray="0.68,1.32" d="M55,223h722"/>
  <text x="32.2" y="213.2" font-size="7" fill="#333">  13</text>
  <path stroke-width="0.6" stroke="#E05050" opacity="0.5" fill="none" stroke-dashoffset="1.5" stroke-dasharray="0.52,1.48" d="M54,211h724"/>
  <path stroke-width="0.4" stroke="#909090" opacity="0.5" fill="none" stroke-dashoffset="0.5" stroke-dasharray="0.68,1.32" d="M55,199h722"/>
  <text x="32.2" y="189.2" font-size="7" fill="#333">  14</text>
  <path stroke-width="0.6" stroke="#E05050" opacity="0.5" fill="none" stroke-dashoffset="1.5" stroke-dasharray="0.52,1.48" d="M54,187h724"/>
  <path stroke-width="0.4" stroke="#909090" opacity="0.5" fill="none" stroke-dashoffset="0.5" stroke-dasharray="0.68,1.32" d="M55,175h722"/>
  <text x="32.2" y="165.2" font-size="7" fill="#333">  15</text>
  <path stroke-width="0.6" stroke="#E05050" opacity="0.5" fill="none" stroke-dashoffset="1.5" stroke-dasharray="0.52,1.48" d="M54,163h724"/>
  <path stroke-width="0.4" stroke="#909090" opacity="0.5" fill="none" stroke-dashoffset="0.5" stroke-dasharray="0.68,1.32" d="M55,151h722"/>
  <text x="32.2" y="141.2" font-size="7" fill="#333">  16</text>
  <path stroke-width="0.6" stroke="#E05050" opacity="0.5" fill="none" stroke-dashoffset="1.5" stroke-dasharray="0.52,1.48" d="M54,139h724"/>
  <path stroke-width="0.4" stroke="#909090" opacity="0.5" fill="none" stroke-dashoffset="0.5" stroke-dasharray="0.68,1.32" d="M55,127h722"/>
  <text x="32.2" y="117.2" font-size="7" fill="#333">  17</text>
  <path stroke-width="0.6" stroke="#E05050" opacity="0.5" fill="none" stroke-dashoffset="1.5" stroke-dasharray="0.52,1.48" d="M54,115h724"/>
  <path stroke-width="0.4" stroke="#909090" opacity="0.5" fill="none" stroke-dashoffset="0.5" stroke-dasharray="0.68,1.32" d="M55,103h722"/>
  <text x="32.2" y="93.2" font-size="7" fill="#333">  18</text>
  <path stroke-width="0.6" stroke="#E05050" opacity="0.5" fill="none" stroke-dashoffset="1.5" stroke-dasharray="0.52,1.48" d="M54,91h724"/>
  <path stroke-width="0.4" stroke="#909090" opacity="0.5" fill="none" stroke-dashoffset="0.5" stroke-dasharray="0.68,1.32" d="M55,79h722"/>
  <text x="32.2" y="69.2" font-size="7" fill="#333">  19</text>
  <path stroke-width="0.6" stroke="#E05050" opacity="0.5" fill="none" stroke-dashoffset="1.5" stroke-dasharray="0.52,1.48" d="M54,67h724"/>
  <path stroke-width="0.4" stroke="#909090" opacity="0.5" fill="none" stroke-dashoffset="0.5" stroke-dasharray="0.68,1.32" d="M55,55h722"/>
  <text x="32.2" y="45.2" font-size="7" fill="#333">  20</text>
  <path stroke-width="0.6" stroke="#E05050" opacity="0.5" fill="none" stroke-dashoffset="1.5" stroke-dasharray="0.52,1.48" d="M54,43h724"/>
  <g transform="matrix(0, -1, 1, 0, 15.032, 177.2)">
    <text font-size="8" fill="#333"> seconds</text>
  </g>
  <text x="322" y="18.53" font-size="9" fill="#333">f1-db1(MySQL) - 5 Yearly Graph</text>
  <g transform="matrix(-0, 1, -1, -0, 795.541, 7)">
    <text font-size="5.5" fill="#333" opacity="0.27">RRDTOOL / TOBI OETIKER</text>
  </g>
  <text x="16" y="315" font-size="8" fill="#333">  seconds for query</text>
  <polygon fill="#FFF" points="15.5,309.5 15.5,314.5 20.5,314.5 20.5,309.5"/>
  <polygon fill="#69F" points="15.5,309.5 15.5,314.5 20.5,314.5 20.5,309.5"/>
  <path stroke-width="1" stroke="#FFF" fill="none" d="M16,310v5h5v-5 Z"/>
  <text x="699" y="329" font-size="8" fill="#333"> [15:24/2009-05-28]</text>
  <g stroke-width="0.6" stroke="#202020" fill="none">
    <path d="M52,283h728"/>
    <path d="M56,287v-258"/>
  </g>
  <polygon fill="#F00" points="777.5,280.5 777.5,285.5 782.5,283"/>
  <polygon fill="#F00" points="53.5,30.5 58.5,30.5 56,25.5"/>
  <g stroke-width="1" stroke="#F00" fill="none">
    <path d="M617,283v-250"/>
    <path d="M225,283v-250"/>
  </g>
</svg>